<?xml version="1.0" encoding="utf-8"?>
<!-- Generator: Adobe Illustrator 16.0.0, SVG Export Plug-In . SVG Version: 6.00 Build 0)  -->
<!DOCTYPE svg PUBLIC "-//W3C//DTD SVG 1.1//EN" "http://www.w3.org/Graphics/SVG/1.1/DTD/svg11.dtd">
<svg version="1.1" id="图形" xmlns="http://www.w3.org/2000/svg" xmlns:xlink="http://www.w3.org/1999/xlink" x="0px" y="0px"
	 width="1024px" height="1024px" viewBox="0 0 1024 1024" enable-background="new 0 0 1024 1024" xml:space="preserve">
<path fill-rule="evenodd" clip-rule="evenodd" d="M935.58,786.26c-13.767,0-28.632-12.807-28.632-26.58V652.575
	c0-27.476-12.683-40.165-40.164-40.165H652.575c-27.482,0-40.165,12.695-40.165,40.165v214.209
	c0,27.476,12.695,40.164,40.165,40.164h107.104c13.781,0,26.567,14.865,26.567,28.639c0,13.774-11.14,24.913-24.92,24.913H652.575
	c-54.978,0-93.717-38.745-93.717-93.716V652.575c0-54.965,38.726-93.717,93.717-93.717h214.209
	c54.964,0,93.716,38.752,93.716,93.717V761.34C960.5,775.106,949.36,786.26,935.58,786.26z M960.5,371.426
	c0,54.938-38.752,93.716-93.716,93.716H652.575c-54.965,0-93.717-38.772-93.717-93.716V157.217
	c0-54.964,38.752-93.717,93.717-93.717h214.209c54.898,0.478,93.363,41.289,93.716,93.717
	C960.422,216.319,960.5,371.426,960.5,371.426z M866.784,117.052H652.575c-27.482,0-40.165,12.669-40.165,40.165v214.209
	c0,27.469,40.165,40.164,40.165,40.164h214.209c27.469,0,40.164-12.695,40.164-40.164V157.217
	C906.948,129.721,894.253,117.052,866.784,117.052z M371.426,960.5H157.216c-54.964,0-93.716-38.745-93.716-93.716V652.575
	c0-54.965,38.752-93.717,93.716-93.717h214.209c54.964,0,93.716,38.752,93.716,93.717v214.209
	C465.142,921.755,426.39,960.5,371.426,960.5z M411.59,652.575c0-27.47-12.695-40.165-40.164-40.165H157.216
	c-27.469,0-40.164,12.695-40.164,40.165v214.209c0,27.469,12.682,40.164,40.164,40.164h214.209
	c27.469,0,40.164-12.695,40.164-40.164V652.575z M465.142,371.426c0,54.938-38.752,93.716-93.716,93.716H157.216
	c-54.964,0-93.716-38.772-93.716-93.716V157.217c0-54.964,38.752-93.717,93.716-93.717h214.209
	c54.898,0.478,93.363,41.289,93.716,93.717C465.063,216.319,465.142,371.426,465.142,371.426z M371.426,117.052H157.216
	c-27.482,0-40.164,12.669-40.164,40.165v214.209c0,27.469,40.164,40.164,40.164,40.164h214.209
	c27.469,0,40.164-12.695,40.164-40.164V157.217C411.59,129.721,398.895,117.052,371.426,117.052z"/>
</svg>
