<?xml version="1.0" encoding="utf-8"?>
<!-- Generator: Adobe Illustrator 16.0.0, SVG Export Plug-In . SVG Version: 6.00 Build 0)  -->
<!DOCTYPE svg PUBLIC "-//W3C//DTD SVG 1.1//EN" "http://www.w3.org/Graphics/SVG/1.1/DTD/svg11.dtd">
<svg version="1.1" id="图形" xmlns="http://www.w3.org/2000/svg" xmlns:xlink="http://www.w3.org/1999/xlink" x="0px" y="0px"
	 width="1024px" height="1024px" viewBox="0 0 1024 1024" enable-background="new 0 0 1024 1024" xml:space="preserve">
<g>
	<g>
		<path d="M553.251,570.387c-7.49-0.831-15.1-1.273-22.813-1.273c-7.717,0-15.328,0.442-22.821,1.273
			c7.456,1.052,15.072,1.607,22.821,1.607C538.184,571.994,545.798,571.438,553.251,570.387z M512,69.5
			C267.631,69.5,69.5,267.613,69.5,512c0,244.387,198.131,442.5,442.5,442.5S954.5,756.387,954.5,512
			C954.5,267.613,756.369,69.5,512,69.5z M327.625,770.125c0-103.374,78.712-188.499,179.991-199.738
			c-77.843-10.979-137.679-77.282-137.679-157.452c0-87.849,71.842-159.06,160.5-159.06c88.622,0,160.464,71.211,160.464,159.06
			c0,80.169-59.836,146.472-137.65,157.452c101.255,11.238,179.999,96.364,179.999,199.738H327.625z"/>
	</g>
</g>
</svg>
