<?xml version="1.0" encoding="utf-8"?>
<!-- Generator: Adobe Illustrator 16.0.0, SVG Export Plug-In . SVG Version: 6.00 Build 0)  -->
<!DOCTYPE svg PUBLIC "-//W3C//DTD SVG 1.1//EN" "http://www.w3.org/Graphics/SVG/1.1/DTD/svg11.dtd">
<svg version="1.1" id="图形" xmlns="http://www.w3.org/2000/svg" xmlns:xlink="http://www.w3.org/1999/xlink" x="0px" y="0px"
	 width="1024px" height="1024px" viewBox="0 0 1024 1024" enable-background="new 0 0 1024 1024" xml:space="preserve">
<g>
	<g>
		<path d="M549.093,624.897c-1.797-2.246-3.953-4.673-6.506-7.278h-25.016c-2.553,2.605-4.529,5.032-6.003,7.278
			c-1.438,1.851-2.588,3.918-3.522,6.128c-0.862,2.247-0.791,4.296,0.287,6.165c2.517,5.211,4.709,9.776,6.542,13.694
			c1.797,3.899,3.81,6.99,5.967,9.201c-0.719,3.379-1.798,8.105-3.271,14.27c-1.475,6.146-2.804,12.472-4.063,18.996
			c-1.294,6.523-2.372,12.67-3.271,18.438c-0.898,5.787-1.366,10.172-1.366,13.138c0,1.869,0.827,4.098,2.444,6.703
			c1.618,2.605,3.559,5.302,5.715,8.105c2.157,2.804,4.457,5.104,6.794,6.991c2.336,1.851,4.421,2.803,6.254,2.803
			s3.989-0.952,6.506-2.803c2.552-1.888,4.996-4.026,7.332-6.435c2.372-2.408,4.386-5.032,6.003-7.817
			c1.617-2.804,2.444-5.104,2.444-7.009c0-2.229-0.539-6.021-1.618-11.43c-1.114-5.41-2.3-11.467-3.522-18.17
			c-1.294-6.722-2.659-13.245-4.098-19.553c-1.438-6.345-2.731-11.376-3.81-15.097c2.156-1.851,4.241-4.547,6.254-8.105
			c2.013-3.54,4.457-8.267,7.333-14.269c1.078-2.211,1.15-4.547,0.287-6.955C552.256,629.444,550.891,627.126,549.093,624.897z
			 M512,70.329C268.089,70.329,70.329,268.07,70.329,512c0,243.929,197.76,441.671,441.671,441.671S953.671,755.929,953.671,512
			C953.671,268.07,755.911,70.329,512,70.329z M730.93,724.64c-1.258,7.261-3.198,12.76-5.715,16.48
			c-1.797,2.624-6.397,5.14-13.874,7.548c-7.404,2.426-16.749,4.654-27.964,6.722c-11.25,2.03-23.723,4.008-37.524,5.858
			c-13.767,1.869-27.533,3.45-41.299,4.763c-13.767,1.294-27.209,2.229-40.221,2.785c-13.083,0.558-24.478,0.845-34.254,0.845
			s-21.099-0.396-33.967-1.114c-12.867-0.755-26.095-1.689-39.681-2.804c-13.587-1.132-27.102-2.443-40.509-3.917
			c-13.406-1.492-25.627-3.182-36.697-5.032c-11.071-1.869-20.488-3.631-28.252-5.32c-7.836-1.653-12.58-3.432-14.413-5.301
			c-3.271-2.606-5.787-10.892-7.62-24.855c-1.797-13.981-1.078-32.151,2.192-54.489c1.798-12.652,6.758-22.339,14.952-29.061
			c8.124-6.722,17.541-12.005,28.252-15.923c10.711-3.899,21.926-7.387,33.715-10.334c11.789-2.983,21.997-7.458,30.695-13.425
			c6.901-4.475,12.221-8.752,16.031-12.85c3.81-4.098,6.541-8.195,8.158-12.311c1.618-4.098,2.48-8.374,2.48-12.831
			c0-4.476-0.216-9.508-0.575-15.097c-0.719-8.195-3.343-14.539-7.871-18.996c-4.529-4.475-9.525-9.129-14.953-13.981
			c-2.911-2.247-5.355-5.5-7.332-9.795c-1.977-4.277-3.918-8.645-5.715-13.102c-1.797-4.852-3.45-10.279-4.889-16.229
			c-0.719-0.736-1.797-2.048-3.234-3.899c-1.114-1.869-2.372-4.385-3.846-7.548c-1.438-3.182-3.056-7.728-4.853-13.694
			c-1.833-5.949-3.02-11.286-3.559-15.923c-0.539-4.655-0.467-8.681,0.252-12.023c0.359-4.098,1.294-7.638,2.731-10.621
			c0-13.048,0.719-26.095,2.192-39.124c1.438-10.783,3.774-22.537,7.081-35.207c3.234-12.67,8.482-24.027,15.743-34.074
			c6.506-9.327,13.586-17.072,21.206-23.201c7.62-6.146,15.456-10.891,23.651-14.251c8.123-3.361,16.39-5.68,24.729-6.974
			c8.303-1.33,16.318-1.977,23.902-1.977c8.339,0.755,15.132,1.761,20.38,3.073c5.248,1.312,9.524,2.894,12.796,4.763
			c3.234,1.851,6.038,4.098,8.41,6.686c2.337,2.623,4.816,5.229,7.333,7.835h10.315c3.271,0,6.434,0.468,9.525,1.402
			c3.091,0.935,6.182,2.695,9.237,5.302c3.055,2.605,6.434,6.344,10.063,11.196c8.339,11.16,14.485,23.362,18.476,36.59
			c3.989,13.228,6.9,25.808,8.698,37.74c1.833,13.767,2.911,27.371,3.271,40.777c0.719,1.869,1.258,4.116,1.617,6.704
			c0.396,2.624,0.611,5.787,0.827,9.524c0.18,3.702-0.072,8.375-0.827,13.946c-0.719,7.458-1.833,13.317-3.271,17.612
			s-3.091,7.566-4.889,9.776c-1.797,2.624-3.81,4.475-5.966,5.589c-1.438,5.949-3.092,11.377-4.889,16.229
			c-1.797,4.457-3.738,8.824-5.715,13.12c-1.978,4.276-4.421,7.548-7.333,9.776c-6.146,5.193-11.25,9.578-15.203,13.119
			c-4.026,3.559-6.722,9.597-8.195,18.169c-1.078,5.23-1.438,10.441-1.078,15.653s1.725,10.531,4.098,15.923
			c2.372,5.428,6.146,10.531,11.43,15.384c5.247,4.853,12.58,9.13,21.997,12.85c8.339,3.343,17.469,6.416,27.461,9.22
			c9.956,2.785,19.553,5.967,28.79,9.507s17.505,8.105,24.729,13.677c7.261,5.589,12.328,12.867,15.204,21.781
			c1.474,5.248,2.731,11.861,3.81,19.858c1.078,7.998,1.653,16.139,1.653,24.315C732.835,709.651,732.188,717.379,730.93,724.64z"/>
	</g>
</g>
</svg>
