<?xml version="1.0" encoding="utf-8"?>
<!-- Generator: Adobe Illustrator 16.0.0, SVG Export Plug-In . SVG Version: 6.00 Build 0)  -->
<!DOCTYPE svg PUBLIC "-//W3C//DTD SVG 1.1//EN" "http://www.w3.org/Graphics/SVG/1.1/DTD/svg11.dtd">
<svg version="1.1" id="图形" xmlns="http://www.w3.org/2000/svg" xmlns:xlink="http://www.w3.org/1999/xlink" x="0px" y="0px"
	 width="1024px" height="1024px" viewBox="0 0 1024 1024" enable-background="new 0 0 1024 1024" xml:space="preserve">
<g>
	<g>
		<path d="M512,71C268.459,71,71,268.441,71,512c0,243.54,197.459,441,441,441s441-197.46,441-441C953,268.441,755.541,71,512,71z
			 M769.25,585.5c0,85.289-69.05,146.982-154.357,146.982L512,732.5c-12.166,0-36.75-24.62-36.75-36.75V438.5h73.5v205.785
			L585.5,659c48.736,0,110.25-61.567,110.25-110.25v-73.5c0-48.684-61.514-110.25-110.25-110.25H401.75v330.75
			c0,12.13-24.584,36.75-36.75,36.75c0,0-36.75-10.552-36.75-36.75v-367.5c0-12.167,24.548-36.75,36.75-36.75h249.893
			c85.308,0,154.357,69.104,154.357,154.339V585.5z"/>
	</g>
</g>
</svg>
