<?xml version="1.0" encoding="utf-8"?>
<!-- Generator: Adobe Illustrator 16.0.0, SVG Export Plug-In . SVG Version: 6.00 Build 0)  -->
<!DOCTYPE svg PUBLIC "-//W3C//DTD SVG 1.1//EN" "http://www.w3.org/Graphics/SVG/1.1/DTD/svg11.dtd">
<svg version="1.1" id="图形" xmlns="http://www.w3.org/2000/svg" xmlns:xlink="http://www.w3.org/1999/xlink" x="0px" y="0px"
	 width="1024px" height="1024px" viewBox="0 0 1024 1024" enable-background="new 0 0 1024 1024" xml:space="preserve">
<g>
	<g>
		<path fill-rule="evenodd" clip-rule="evenodd" d="M512,69.5C267.631,69.5,69.5,267.595,69.5,512
			c0,244.369,198.131,442.5,442.5,442.5S954.5,756.369,954.5,512C954.5,267.595,756.369,69.5,512,69.5z M617.007,469.075
			c-1.62,4.069-3.492,8.174-5.474,12.1c-2.16,3.997-4.393,7.058-6.949,9.291c-2.917,2.629-5.582,4.682-8.175,6.446
			c-2.665,1.692-4.825,3.529-6.771,5.401c-1.98,1.945-3.601,4.177-4.825,6.878c-1.225,2.701-2.232,5.978-2.881,9.795
			c-0.937,4.754-1.225,9.615-0.937,14.549c0.253,4.824,1.585,9.866,3.817,14.691c2.269,4.861,5.942,9.615,11.092,14.08
			c1.512,1.297,3.097,2.521,4.897,3.709l-51.928,19.734c-16.277,2.305-32.193,22.615-36.875,36.875s25.027,25.496,36.875,36.875
			l22.687,12.928l-8.066,46.563c-0.792,4.572-0.864,9.039-0.288,13.396c-12.243,0.576-24.919,0.863-38.1,0.863
			c-100.901,0-187.796-16.205-201.624-19.301c-13.828-3.063-22.11-5.691-25.027-7.814c-3.565-2.594-6.194-10.336-7.887-23.299
			c-1.692-13.037-1.044-16.277,2.161-36.588c1.98-11.74,6.77-20.707,14.368-26.648c7.706-6.049,16.853-10.803,27.188-14.26
			c10.442-3.529,58.806-20.021,69.896-22.902c11.092-2.881,20.778-6.986,29.024-12.389c6.771-4.105,11.956-8.102,15.629-11.919
			c3.673-3.853,6.302-7.671,7.706-11.487c1.44-3.817,2.161-7.707,2.161-11.92c0-4.105-0.181-8.57-0.468-13.396
			c-0.648-7.634-3.098-13.503-7.419-17.609c-4.321-4.105-9.11-8.39-14.656-12.855c-2.665-2.233-4.825-5.33-6.77-9.327
			c-2.017-3.997-3.674-7.994-5.258-12.1c-1.621-4.753-3.241-9.687-4.825-14.728c-2.233-0.648-4.502-1.657-6.771-3.349
			c-1.944-1.584-4.033-3.817-6.302-6.698s-4.142-6.986-5.834-12.388c-1.62-5.33-2.16-10.263-1.62-14.548
			c0.504-4.285,1.368-7.994,2.665-11.163c1.224-3.565,3.169-6.806,5.833-10.083c-0.288-11.992,0.288-24.127,1.945-36.227
			c1.224-10.155,3.601-20.958,6.985-32.41c3.386-11.451,8.283-21.822,14.692-30.933c6.086-8.571,12.856-15.665,20.383-21.247
			c7.526-5.582,15.124-9.975,22.83-13.144c7.743-3.169,15.449-5.294,23.335-6.698c7.814-1.188,15.413-1.944,22.867-1.944
			c9.219,0,18.258,1.116,26.684,3.349c8.499,2.233,16.386,5.042,23.804,8.571c7.346,3.529,14.008,7.346,19.662,11.631
			c5.833,4.285,10.442,8.679,14.008,13.144c7.994,10.155,14.044,21.318,18.077,33.526s6.842,23.659,8.354,34.462
			c1.98,12.676,2.737,25.459,2.449,38.135c2.232,1.188,4.033,3.133,5.257,5.762c1.225,2.233,2.377,5.042,3.098,8.571
			c0.792,3.529,0.864,7.742,0.216,12.856c-0.937,6.698-2.557,11.919-4.537,15.917c-2.161,3.997-4.394,7.094-6.95,9.327
			c-2.917,2.593-5.941,4.286-9.111,5.222C620.104,459.352,618.592,464.394,617.007,469.075z M807,548.875h-36.875v36.875H807v36.875
			h-73.75V659.5H807v36.875h-73.75v36.875h-36.875v-36.875h-73.75V659.5h73.75v-36.875h-73.75V585.75H659.5v-36.875h-36.875V512
			H659.5v36.875h36.875v36.875h36.875v-36.875h36.875V512H807V548.875z"/>
	</g>
</g>
</svg>
