<?xml version="1.0" encoding="utf-8"?>
<!-- Generator: Adobe Illustrator 16.0.0, SVG Export Plug-In . SVG Version: 6.00 Build 0)  -->
<!DOCTYPE svg PUBLIC "-//W3C//DTD SVG 1.1//EN" "http://www.w3.org/Graphics/SVG/1.1/DTD/svg11.dtd">
<svg version="1.1" id="图形" xmlns="http://www.w3.org/2000/svg" xmlns:xlink="http://www.w3.org/1999/xlink" x="0px" y="0px"
	 width="1024px" height="1024px" viewBox="0 0 1024 1024" enable-background="new 0 0 1024 1024" xml:space="preserve">
<g>
	<g>
		<path d="M512,71C268.459,71,71,268.423,71,512c0,243.541,197.46,441,441,441c243.542,0,441-197.459,441-441
			C953,268.423,755.541,71,512,71z M409.178,714.663l-12.524,12.059c-6.102,3.661-13.279,5.778-20.959,5.778
			c-21.82,0-39.55-17.047-39.55-38.042c0-7.823,2.477-15.109,6.676-21.139l11.054-10.551l61.226-58.714l45.22-43.318l8.613-8.254
			c-0.718-2.046-1.292-4.127-1.794-6.28c-1.364-5.635-2.046-11.521-2.046-17.55c0-5.312,0.538-10.479,1.579-15.468
			c7.465-36.104,40.555-63.308,80.283-63.308c4.02,0,7.967,0.287,11.844,0.826h0.035l1.615,21.784l-37.18,36.714l46.547,44.466
			l39.406-37.935l18.984,3.696c0.359,3.015,0.574,6.102,0.574,9.224c0,35.387-24.297,65.354-57.709,75.259
			c-7.607,2.261-15.719,3.481-24.152,3.481c-7.932,0-15.541-1.077-22.789-3.087c-0.072-0.036-0.109-0.036-0.145-0.036
			l-32.012,30.721l-72.782,70.055L409.178,714.663z M806,512h-73.5v183.75c0,22.718-13.494,36.75-36.75,36.75H438.5l97.186-100.094
			c4.701,0.574,122.705,3.769,122.705-108.168c0-4.271-1.545-28.567-1.545-28.567l-53.689-8.757l-10.551-10.157l-4.666-51.68
			c0,0-18.912-2.979-37.18-2.979c-53.69,0-97.761,37.145-107.954,86.384c-1.436,6.819-2.153,13.889-2.153,21.103
			c0,5.239-2.906,14.104-2.153,19.164L365,585.5V512l-60.867-9.151c-16.867-16.509-16.867-40.662,0-57.171l212.569-179.121
			c16.904-16.509,44.287-16.509,61.189,0L659,328.25V291.5c0-17.729,18.59-36.75,36.75-36.75s36.75,19.021,36.75,36.75v110.25
			l60.58,49.06C809.947,467.318,822.904,495.491,806,512z"/>
	</g>
</g>
</svg>
