<?xml version="1.0" encoding="utf-8"?>
<!-- Generator: Adobe Illustrator 16.0.0, SVG Export Plug-In . SVG Version: 6.00 Build 0)  -->
<!DOCTYPE svg PUBLIC "-//W3C//DTD SVG 1.1//EN" "http://www.w3.org/Graphics/SVG/1.1/DTD/svg11.dtd">
<svg version="1.1" id="图形" xmlns="http://www.w3.org/2000/svg" xmlns:xlink="http://www.w3.org/1999/xlink" x="0px" y="0px"
	 width="1024px" height="1024px" viewBox="0 0 1024 1024" enable-background="new 0 0 1024 1024" xml:space="preserve">
<path fill-rule="evenodd" clip-rule="evenodd" d="M933.813,855.886c0,43.034-34.893,77.927-77.927,77.927H168.09
	c-43.01,0-77.902-34.893-77.902-77.927V168.09c0-43.01,34.893-77.902,77.902-77.902h687.796c43.034,0,77.927,6.591,77.927,49.625
	V855.886z M305.189,812.658c25.176,24.86,46.402,32.251,71.554,7.365l201.311-199.42c37.824,7.802,95.373-6.445,124.692-35.378
	c18.416-18.173,29.465-40.901,33.172-64.526c3.635-23.238-11.728-31.864-24.764-18.973l-23.625,23.359
	c-25.176,24.86-66.15,24.86-91.326,0c-25.177-24.885-25.177-65.375,0-90.261c0,0,10.588-10.419,23.625-23.334
	c13.036-12.891,4.337-28.06-19.167-24.474c-23.916,3.708-46.911,14.587-65.327,32.76c-29.295,28.98-32.299,96.972-24.376,134.336
	L309.647,753.534C284.471,778.396,280.013,787.748,305.189,812.658z M834.563,189.438c0-16.719-26.267-49.625-49.625-49.625H239.063
	c-23.383,0-49.625,32.906-49.625,49.625v99.25h645.125V189.438z M735.313,239.063h-49.625v-49.625h49.625V239.063z"/>
</svg>
