<?xml version="1.0" encoding="utf-8"?>
<!-- Generator: Adobe Illustrator 16.0.0, SVG Export Plug-In . SVG Version: 6.00 Build 0)  -->
<!DOCTYPE svg PUBLIC "-//W3C//DTD SVG 1.1//EN" "http://www.w3.org/Graphics/SVG/1.1/DTD/svg11.dtd">
<svg version="1.1" id="图形" xmlns="http://www.w3.org/2000/svg" xmlns:xlink="http://www.w3.org/1999/xlink" x="0px" y="0px"
	 width="1024px" height="1024px" viewBox="0 0 1024 1024" enable-background="new 0 0 1024 1024" xml:space="preserve">
<g>
	<g>
		<path fill-rule="evenodd" clip-rule="evenodd" d="M923,75.313H203.95c-39.384,0-51.576,14.048-51.576,51.375v51.375h-22.1
			c-44.527,0-80.65,36.123-80.65,80.65v609.301c0,44.551,36.123,80.674,80.65,80.674h660.677c44.551,0,80.674-58.197,80.674-102.75
			H923c39.41,0,51.375-14.047,51.375-51.375V126.688C974.375,89.36,962.41,75.313,923,75.313z M718.127,572.381
			c-3.838,24.459-15.277,47.988-34.342,66.803c-30.354,29.977-89.932,44.703-129.09,36.625l-208.41,206.453
			c-26.039,25.764-48.014,18.111-74.077-7.625c-26.064-25.789-21.448-35.473,4.616-61.209l208.41-206.453
			c-8.203-38.683-5.118-109.072,25.236-139.075c19.065-18.814,42.87-30.077,67.63-33.916c24.334-3.712,33.34,11.991,19.844,25.336
			s-24.459,24.157-24.459,24.157c-26.064,25.763-26.064,67.656,0,93.444c26.064,25.736,68.482,25.736,94.547,0l24.459-24.183
			C705.986,539.394,721.891,548.324,718.127,572.381z M768.875,383.563h-616.5v-102.75c0-17.309,27.167-51.375,51.375-51.375H717.5
			c24.182,0,51.375,34.066,51.375,51.375V383.563z M923,743.188c0,37.328-11.965,51.375-51.375,51.375v-535.85
			c0-44.527-36.123-80.65-80.674-80.65H203.75c0-37.327,12.191-51.375,51.576-51.375h616.3c39.41,0,51.375,14.048,51.375,51.375
			V743.188z"/>
	</g>
</g>
</svg>
