<?xml version="1.0" encoding="utf-8"?>
<!-- Generator: Adobe Illustrator 16.0.0, SVG Export Plug-In . SVG Version: 6.00 Build 0)  -->
<!DOCTYPE svg PUBLIC "-//W3C//DTD SVG 1.1//EN" "http://www.w3.org/Graphics/SVG/1.1/DTD/svg11.dtd">
<svg version="1.1" id="图形" xmlns="http://www.w3.org/2000/svg" xmlns:xlink="http://www.w3.org/1999/xlink" x="0px" y="0px"
	 width="1024px" height="1024px" viewBox="0 0 1024 1024" enable-background="new 0 0 1024 1024" xml:space="preserve">
<g>
	<g>
		<path fill-rule="evenodd" clip-rule="evenodd" d="M138,138H94v44H50v44h44v44h44v-44h44v-44h-44V138z M138,446H94v44H50v44h44v44
			h44v-44h44v-44h-44V446z M138,754H94v44H50v44h44v44h44v-44h44v-44h-44V754z M908,754H336c-36.459,0-66,29.563-66,66
			c0,36.459,29.541,66,66,66h572c36.459,0,66-29.541,66-66C974,783.563,944.459,754,908,754z M908,446H336
			c-36.459,0-66,29.563-66,66c0,36.459,29.541,66,66,66h572c36.459,0,66-29.541,66-66C974,475.563,944.459,446,908,446z M336,270
			h572c36.459,0,66-29.541,66-66c0-36.438-29.541-66-66-66H336c-36.459,0-66,29.563-66,66C270,240.459,299.541,270,336,270z"/>
	</g>
</g>
</svg>
