<?xml version="1.0" encoding="utf-8"?>
<!-- Generator: Adobe Illustrator 16.0.0, SVG Export Plug-In . SVG Version: 6.00 Build 0)  -->
<!DOCTYPE svg PUBLIC "-//W3C//DTD SVG 1.1//EN" "http://www.w3.org/Graphics/SVG/1.1/DTD/svg11.dtd">
<svg version="1.1" id="图形" xmlns="http://www.w3.org/2000/svg" xmlns:xlink="http://www.w3.org/1999/xlink" x="0px" y="0px"
	 width="1024px" height="1024px" viewBox="0 0 1024 1024" enable-background="new 0 0 1024 1024" xml:space="preserve">
<path fill-rule="evenodd" clip-rule="evenodd" d="M512,967.129C260.639,967.129,56.871,763.361,56.871,512
	S260.639,56.871,512,56.871S967.129,260.639,967.129,512S763.361,967.129,512,967.129z M587.854,549.928V512h-37.928v-37.927H512
	V512h-37.928v37.928H512v37.927v37.928h37.927v-37.928v-37.927H587.854z M322.363,512v189.637c0,32.262,5.666,37.928,37.927,37.928
	H512l-75.855-265.492H360.29C328.029,474.073,322.363,479.777,322.363,512z M530.964,246.508c-52.372,0-94.819,42.446-94.819,94.818
	s42.447,94.819,94.819,94.819s94.818-42.446,94.818-94.819S583.336,246.508,530.964,246.508z M739.564,512
	c0-32.223-5.667-37.927-37.928-37.927h-75.854l-75.855,265.492h151.71c32.261,0,37.928-5.666,37.928-37.928V512z M625.782,625.782
	h75.854v37.928h-75.854V625.782z"/>
</svg>
