<?xml version="1.0" encoding="utf-8"?>
<!-- Generator: Adobe Illustrator 16.0.0, SVG Export Plug-In . SVG Version: 6.00 Build 0)  -->
<!DOCTYPE svg PUBLIC "-//W3C//DTD SVG 1.1//EN" "http://www.w3.org/Graphics/SVG/1.1/DTD/svg11.dtd">
<svg version="1.1" id="图形" xmlns="http://www.w3.org/2000/svg" xmlns:xlink="http://www.w3.org/1999/xlink" x="0px" y="0px"
	 width="1024px" height="1024px" viewBox="0 0 1024 1024" enable-background="new 0 0 1024 1024" xml:space="preserve">
<path d="M854.42,83.973H169.568c-47.19,0-85.596,38.399-85.596,85.602V854.42c0,47.202,38.406,85.607,85.596,85.607h465.348
	c15.759,0,24.019-9.795,24.019-25.554s-9.795-25.554-25.554-25.554H160.634c-15.734,0-25.554-9.82-25.554-25.554V173.411
	c0-15.734,22.597-38.331,38.331-38.331h677.178c15.734,0,38.331,22.597,38.331,38.331v523.854c0,15.759,9.795,25.554,25.554,25.554
	s25.554-10.681,25.554-26.439V169.574C940.027,122.372,901.622,83.973,854.42,83.973z M480.058,313.958H198.965
	c-15.759,0-25.554,9.795-25.554,25.554c0,15.759,9.795,25.554,25.554,25.554h281.092c15.759,0,25.554-9.795,25.554-25.554
	C505.611,323.752,495.816,313.958,480.058,313.958z M198.965,543.942h178.876c15.76,0,25.555-9.795,25.555-25.554
	c0-15.759-9.795-25.554-25.555-25.554H198.965c-15.759,0-25.554,9.794-25.554,25.554
	C173.411,534.147,183.206,543.942,198.965,543.942z M198.965,710.043h293.87c15.759,0,25.554-9.795,25.554-25.555
	c0-15.759-9.795-25.554-25.554-25.554h-293.87c-15.759,0-25.554,9.795-25.554,25.554
	C173.411,700.248,183.206,710.043,198.965,710.043z M562.197,464.892c-10.257-11.966-28.262-13.351-40.24-3.095
	c-11.953,10.257-13.351,28.268-3.095,40.234l342.433,399.498c5.64,6.588,13.638,9.963,21.673,9.963
	c6.575,0,13.177-2.258,18.566-6.868c11.954-10.257,13.351-28.269,3.095-40.234L562.197,464.892z"/>
</svg>
