<?xml version="1.0" encoding="utf-8"?>
<!-- Generator: Adobe Illustrator 16.0.0, SVG Export Plug-In . SVG Version: 6.00 Build 0)  -->
<!DOCTYPE svg PUBLIC "-//W3C//DTD SVG 1.1//EN" "http://www.w3.org/Graphics/SVG/1.1/DTD/svg11.dtd">
<svg version="1.1" id="图形" xmlns="http://www.w3.org/2000/svg" xmlns:xlink="http://www.w3.org/1999/xlink" x="0px" y="0px"
	 width="1024px" height="1024px" viewBox="0 0 1024 1024" enable-background="new 0 0 1024 1024" xml:space="preserve">
<g>
	<g>
		<path fill-rule="evenodd" clip-rule="evenodd" d="M512,622.25h36.75v-73.5H512V622.25z M438.5,622.25h36.75v-73.5H438.5V622.25z
			 M365,622.25h36.75v-147H365V622.25z M659,622.25h36.75V512H659V622.25z M585.5,622.25h36.75v-147H585.5V622.25z M512,70.999
			C268.441,70.999,71,268.441,71,512s197.442,441.001,441,441.001S953,755.559,953,512S755.559,70.999,512,70.999z M695.75,732.5
			H365v-36.75h330.75V732.5z M769.25,622.25c0,18.949-18.41,36.75-36.75,36.75H328.25c-18.339,0-36.75-11.646-36.75-30.577V328.25
			c0-18.932,18.411-36.75,36.75-36.75H732.5c18.34,0,36.75,17.818,36.75,36.75V622.25z"/>
	</g>
</g>
</svg>
