<?xml version="1.0" encoding="utf-8"?>
<!-- Generator: Adobe Illustrator 16.0.0, SVG Export Plug-In . SVG Version: 6.00 Build 0)  -->
<!DOCTYPE svg PUBLIC "-//W3C//DTD SVG 1.1//EN" "http://www.w3.org/Graphics/SVG/1.1/DTD/svg11.dtd">
<svg version="1.1" id="图形" xmlns="http://www.w3.org/2000/svg" xmlns:xlink="http://www.w3.org/1999/xlink" x="0px" y="0px"
	 width="1024px" height="1024px" viewBox="0 0 1024 1024" enable-background="new 0 0 1024 1024" xml:space="preserve">
<g>
	<g>
		<path d="M512,83.234c-236.807,0-428.774,191.968-428.774,428.774c0,236.788,191.968,428.757,428.774,428.757
			c236.806,0,428.774-191.969,428.774-428.757C940.774,275.202,748.806,83.234,512,83.234z M476.269,619.202v71.463
			c-2.059,7.013-1.291,28.786,0,35.73c-89.886-1.396-178.655-16.104-178.655-66.158c0-10.451,0-4.083,0-14.604
			c0-38.959,69.944-78.44,129.56-100.093c4.292-1.587,24.879-12.858,13.364-43.181c-29.521-30.306-51.835-79.384-51.835-127.693
			c0-74.01,48.712-112.777,105.658-112.777c56.93,0,105.903,38.768,105.903,112.777c0,48.118-22.438,97.004-51.782,127.361h0.156
			c-11.271,34.406,6.77,42.57,9.614,43.513c4.5,1.483,20.656,0.506,25.21,2.198L512,583.471
			C505.579,589.229,478.589,611.158,476.269,619.202z M619.193,690.665L512,726.396l35.73-107.193l107.194-107.193l71.462,71.462
			L619.193,690.665z M754.406,548.228l-9.787,9.945l-63.804-64.1l9.806-9.945c8.706-8.758,22.907-8.671,31.718,0.175l31.91,32.05
			C763.06,525.216,763.13,539.47,754.406,548.228z"/>
	</g>
</g>
</svg>
