<?xml version="1.0" encoding="utf-8"?>
<!-- Generator: Adobe Illustrator 16.0.0, SVG Export Plug-In . SVG Version: 6.00 Build 0)  -->
<!DOCTYPE svg PUBLIC "-//W3C//DTD SVG 1.1//EN" "http://www.w3.org/Graphics/SVG/1.1/DTD/svg11.dtd">
<svg version="1.1" id="图形" xmlns="http://www.w3.org/2000/svg" xmlns:xlink="http://www.w3.org/1999/xlink" x="0px" y="0px"
	 width="1024px" height="1024px" viewBox="0 0 1024 1024" enable-background="new 0 0 1024 1024" xml:space="preserve">
<g>
	<g>
		<path d="M512,104c-225.333,0-408,182.65-408,408c0,225.316,182.667,408,408,408s408-182.684,408-408
			C920,286.651,737.333,104,512,104z M410,308c44.758-45.555,154.278-40.707,204,0c49.423,40.441,37.918,105.785,3.918,160.371
			c-6.309,10.094-13.979,19.391-21.449,28.721c-8.052,9.994-8.251,19.324,0.88,28.621c3.968,4.084,7.952,8.135,11.737,12.285
			C633.772,563.598,614,580,614,580H410c0,0-24.321-14.742,4.599-40.408c1.561-2.191,9.33-10.99,11.272-13.48
			c6.01-7.604,10.575-15.638,0.481-28.72C383.039,442.108,361.357,357.54,410,308z M682,750H342v-34h340V750z M716,682H308
			c0-13.281-0.199-22.014,0-34c0.382-25.666,8.467-33.9,34-34c111.463-0.299,228.521-0.199,340,0c25.633,0.1,33.9,7.371,34,34V682z"
			/>
	</g>
</g>
</svg>
