<?xml version="1.0" encoding="utf-8"?>
<!-- Generator: Adobe Illustrator 16.0.0, SVG Export Plug-In . SVG Version: 6.00 Build 0)  -->
<!DOCTYPE svg PUBLIC "-//W3C//DTD SVG 1.1//EN" "http://www.w3.org/Graphics/SVG/1.1/DTD/svg11.dtd">
<svg version="1.1" id="图形" xmlns="http://www.w3.org/2000/svg" xmlns:xlink="http://www.w3.org/1999/xlink" x="0px" y="0px"
	 width="1024px" height="1024px" viewBox="0 0 1024 1024" enable-background="new 0 0 1024 1024" xml:space="preserve">
<g>
	<g>
		<path fill-rule="evenodd" clip-rule="evenodd" d="M512,114.734c-219.404,0-397.266,177.845-397.266,397.266
			c0,219.388,177.861,397.266,397.266,397.266S909.266,731.388,909.266,512C909.266,292.579,731.404,114.734,512,114.734z
			 M573.151,473.431c-1.438,3.686-3.12,7.371-4.897,10.895c-1.939,3.589-3.961,6.337-6.24,8.341
			c-2.618,2.36-4.994,4.203-7.354,5.787c-2.36,1.487-4.3,3.169-6.078,4.85c-1.778,1.746-3.2,3.75-4.3,6.175
			s-2.037,5.367-2.619,8.794c-0.856,4.268-1.099,8.6-0.856,13.062c0.259,4.332,1.438,8.858,3.476,13.19
			c2.021,4.364,5.318,8.632,9.957,12.641c1.342,1.164,2.781,2.263,4.381,3.33l-46.635,17.717
			c-14.597,2.068-28.87,20.303-33.089,33.105c-4.235,12.802,22.453,22.889,33.089,33.105l20.383,11.573l-7.258,41.835
			c-0.679,4.105-0.76,8.114-0.258,12.026c-10.977,0.518-22.373,0.776-34.189,0.776c-90.587,0-168.615-14.549-181.013-17.329
			c-12.415-2.748-19.85-5.108-22.469-7.016c-3.2-2.327-5.561-9.278-7.08-20.917c-1.536-11.703-0.938-14.613,1.94-32.847
			c1.762-10.54,6.078-18.59,12.916-23.924c6.918-5.432,15.114-9.699,24.393-12.803c9.376-3.168,52.778-17.976,62.736-20.562
			c9.958-2.587,18.654-6.272,26.09-11.121c6.078-3.686,10.717-7.274,14.015-10.733c3.298-3.428,5.658-6.854,6.919-10.281
			c1.277-3.427,1.939-6.919,1.939-10.701c0-3.686-0.162-7.694-0.42-12.026c-0.582-6.854-2.78-12.124-6.66-15.81
			c-3.896-3.686-8.195-7.532-13.174-11.541c-2.36-2.005-4.3-4.785-6.078-8.374c-1.778-3.588-3.297-7.177-4.736-10.862
			c-1.422-4.268-2.861-8.697-4.3-13.223c-2.021-0.582-4.057-1.52-6.078-3.007c-1.778-1.423-3.637-3.427-5.658-6.014
			c-2.021-2.618-3.718-6.271-5.237-11.121c-1.439-4.785-1.94-9.214-1.439-13.062c0.42-3.847,1.18-7.177,2.376-10.021
			c1.083-3.201,2.861-6.11,5.221-9.053c-0.243-10.798,0.259-21.661,1.778-32.523c1.1-9.116,3.217-18.815,6.256-29.097
			c3.039-10.28,7.42-19.592,13.158-27.771c5.496-7.694,11.574-14.063,18.331-19.074c6.757-5.012,13.594-8.956,20.513-11.801
			c6.918-2.845,13.853-4.752,20.933-6.014c7.016-1.099,13.853-1.745,20.513-1.745c8.276,0,16.391,1.002,23.988,3.007
			c7.598,2.004,14.694,4.525,21.354,7.694c6.595,3.168,12.592,6.595,17.651,10.442c5.237,3.847,9.376,7.791,12.576,11.8
			c7.177,9.117,12.576,19.14,16.214,30.099c3.637,10.96,6.158,21.241,7.516,30.939c1.778,11.38,2.441,22.857,2.199,34.237
			c2.02,1.066,3.621,2.813,4.72,5.173c1.099,2.004,2.118,4.493,2.78,7.694c0.68,3.168,0.775,6.918,0.178,11.541
			c-0.84,6.014-2.279,10.701-4.057,14.29c-1.94,3.589-3.961,6.369-6.24,8.373c-2.619,2.328-5.318,3.848-8.195,4.688
			C575.932,464.733,574.59,469.26,573.151,473.431z M743.738,545.105h-33.105v33.105h33.105v33.105h-66.211v33.105h66.211v33.105
			h-66.211v33.105h-33.105v-33.105h-66.227v-33.105h66.227v-33.105h-66.227v-33.105h33.105v-33.105h-33.105V512h33.105v33.105
			h33.121v33.105h33.105v-33.105h33.105V512h33.105V545.105z"/>
	</g>
</g>
</svg>
