<?xml version="1.0" encoding="utf-8"?>
<!-- Generator: Adobe Illustrator 16.0.0, SVG Export Plug-In . SVG Version: 6.00 Build 0)  -->
<!DOCTYPE svg PUBLIC "-//W3C//DTD SVG 1.1//EN" "http://www.w3.org/Graphics/SVG/1.1/DTD/svg11.dtd">
<svg version="1.1" id="图形" xmlns="http://www.w3.org/2000/svg" xmlns:xlink="http://www.w3.org/1999/xlink" x="0px" y="0px"
	 width="1024px" height="1024px" viewBox="0 0 1024 1024" enable-background="new 0 0 1024 1024" xml:space="preserve">
<path fill-rule="evenodd" clip-rule="evenodd" d="M262.68,740.537c-19.126,0-34.627-15.507-34.627-34.627
	c0-19.126,15.501-34.626,34.627-34.626s34.628,15.5,34.628,34.626C297.308,725.03,281.806,740.537,262.68,740.537z M262.68,408.119
	c-19.126,0-34.627-15.508-34.627-34.626c0-19.126,15.501-34.627,34.627-34.627s34.628,15.5,34.628,34.627
	C297.308,392.611,281.806,408.119,262.68,408.119z M262.68,574.329c-19.126,0-34.627-15.501-34.627-34.628
	c0-19.125,15.501-34.627,34.627-34.627s34.628,15.502,34.628,34.627C297.308,558.828,281.806,574.329,262.68,574.329z
	 M948.292,186.507c-17.083,0-27.702-10.618-27.702-27.702v-13.851c0-17.056-24.495-41.553-41.552-41.553h-747.94
	c-17.057,0-27.702,10.646-27.702,27.702v747.94c0,17.057,24.497,41.552,41.553,41.552h734.09c17.057,0,41.552-24.495,41.552-41.552
	V505.074c0-17.083,10.619-27.701,27.702-27.701s27.701,11.571,27.701,28.662v377.162c0,51.169-41.633,92.803-92.802,92.803H140.782
	c-51.155,0-92.789-41.634-92.789-92.803V140.796C47.993,89.626,89.627,48,140.782,48h742.409c51.169,0,92.802,41.626,92.802,92.796
	v17.05C975.993,174.929,965.375,186.507,948.292,186.507z M726.68,740.537l-134.882,0.933l65.628-70.186h69.254V740.537z
	 M921.05,243.127l5.532-5.532l49.425,49.384l-54.862,54.821l-69.89,69.842L721.161,541.648l-32.99,32.971l-97.077,97.016
	l-69.889,69.835h-49.344l-0.067-49.376l20.465-20.459l97.077-97.016l69.889-69.842l192.03-191.902L921.05,243.127z M366.764,505.75
	v-0.974h221.869l-69.891,69.842H366.764v-0.967c-15.907-3.139-27.905-17.131-27.905-33.951
	C338.858,522.875,350.856,508.882,366.764,505.75z M369.969,671.635c1.164-0.121,2.313-0.351,3.518-0.351s2.34,0.229,3.517,0.351
	h44.84l0.026,20.533l0.067,49.302h-55.173v-1.608c-15.907-3.139-27.905-17.131-27.905-33.951c0-16.826,11.998-30.819,27.905-33.95
	v-0.325H369.969z M721.161,337.926v34.403l-35.451,35.432H377.017c-1.177,0.122-2.326,0.358-3.53,0.358
	c-1.218,0-2.354-0.237-3.53-0.358h-3.192v-0.317c-15.907-3.138-27.905-17.131-27.905-33.951c0-16.827,11.998-30.819,27.905-33.951
	v-1.616H721.161z"/>
</svg>
