<?xml version="1.0" encoding="utf-8"?>
<!-- Generator: Adobe Illustrator 16.0.0, SVG Export Plug-In . SVG Version: 6.00 Build 0)  -->
<!DOCTYPE svg PUBLIC "-//W3C//DTD SVG 1.1//EN" "http://www.w3.org/Graphics/SVG/1.1/DTD/svg11.dtd">
<svg version="1.1" id="图形" xmlns="http://www.w3.org/2000/svg" xmlns:xlink="http://www.w3.org/1999/xlink" x="0px" y="0px"
	 width="1024px" height="1024px" viewBox="0 0 1024 1024" enable-background="new 0 0 1024 1024" xml:space="preserve">
<path fill-rule="evenodd" clip-rule="evenodd" d="M881.607,974H142.392c-50.935,0-92.388-41.447-92.388-92.402V142.402
	C50.004,91.454,91.457,50,142.392,50h395.196H644.67h236.938c50.936,0,92.389,45.595,92.389,96.543v735.054
	C973.996,932.553,932.543,974,881.607,974z M877.46,105.164H643.014H531.555H132.749c-16.982,0-27.582,10.606-27.582,27.588v744.71
	c0,16.982,24.391,41.373,41.373,41.373h730.92c16.982,0,41.372-24.391,41.372-41.373V146.543
	C918.832,129.561,894.442,105.164,877.46,105.164z M752.748,789.451c-14.033,0-23.393-9.244-23.393-23.117
	c0-115.605-93.533-208.09-210.46-208.09s-210.474,92.484-210.474,208.09c0,13.873-9.347,23.117-23.38,23.117
	s-23.38-9.244-23.38-23.117c0-106.361,67.81-198.844,163.687-235.832c-42.087-30.061-70.153-78.618-70.153-134.105
	c0-90.173,72.496-161.848,163.7-161.848c91.203,0,163.687,71.675,163.687,161.848c0,55.487-28.054,104.045-70.141,134.105
	c95.863,36.988,163.688,127.162,163.688,235.832C776.129,780.207,766.782,789.451,752.748,789.451z M635.822,396.396
	c0-64.739-51.447-115.607-116.927-115.607c-65.48,0-116.927,50.868-116.927,115.607s51.446,115.607,116.927,115.607
	C584.375,512.003,635.822,461.136,635.822,396.396z"/>
</svg>
