<?xml version="1.0" encoding="utf-8"?>
<!-- Generator: Adobe Illustrator 16.0.0, SVG Export Plug-In . SVG Version: 6.00 Build 0)  -->
<!DOCTYPE svg PUBLIC "-//W3C//DTD SVG 1.1//EN" "http://www.w3.org/Graphics/SVG/1.1/DTD/svg11.dtd">
<svg version="1.1" id="图形" xmlns="http://www.w3.org/2000/svg" xmlns:xlink="http://www.w3.org/1999/xlink" x="0px" y="0px"
	 width="1024px" height="1024px" viewBox="0 0 1024 1024" enable-background="new 0 0 1024 1024" xml:space="preserve">
<path fill-rule="evenodd" clip-rule="evenodd" d="M877.46,973.994H671.04c-62.193,0-96.98-48.168-96.98-110.328V560.265
	c0-62.194,34.329-96.537,96.536-96.537h193.073c62.194,0,110.328,39.09,110.328,101.284v302.949
	C973.997,930.123,939.654,973.994,877.46,973.994z M918.833,560.265c0-31.11-19.784-40.692-50.868-40.692H671.04
	c-31.083,0-41.817,9.582-41.817,40.692v303.401c0,31.076,10.29,55.164,41.373,55.164H877.46c31.084,0,41.373-24.088,41.373-55.164
	V560.265z M877.46,325.818H670.596c-62.207,0-96.536-34.376-96.536-96.537v-82.746C574.06,84.342,608.833,50,671.04,50h206.42
	c62.194,0,96.537,34.343,96.537,96.537v70.086C973.997,278.783,939.654,325.818,877.46,325.818z M918.833,146.536
	c0-31.11-10.289-41.379-41.373-41.379H670.596c-31.083,0-41.373,10.269-41.373,41.379v82.746c0,31.077,10.29,41.373,41.373,41.373
	H877.46c31.084,0,41.373-24.08,41.373-55.164V146.536z M408.567,560.265H146.54c-62.194,0-96.537-8.828-96.537-70.988V140.88
	C50.003,78.686,84.346,50,146.54,50h251.846c62.194,0,106.719,34.343,106.719,96.537v317.192
	C505.104,525.889,470.762,560.265,408.567,560.265z M449.94,146.536c0-31.11-24.08-41.379-55.163-41.379H146.54
	c-31.083,0-41.373,10.269-41.373,41.379v317.192c0,31.077,10.289,41.373,41.373,41.373h262.028
	c31.084,0,41.373-10.296,41.373-41.373V146.536z M160.331,670.592h234.447c62.193,0,109.653,59.439,109.653,121.627v75.742
	c0,62.188-43.851,106.033-106.045,106.033L162.755,974c-62.194,0-112.752-50.578-112.752-112.771v-84.154
	C50.003,714.881,98.137,670.592,160.331,670.592z M105.167,863.666c0,31.084,24.08,55.164,55.164,55.164h234.447
	c31.083,0,55.163-24.08,55.163-55.164V780.92c0-31.084-24.08-55.164-55.163-55.164H160.331c-31.083,0-55.164,24.08-55.164,55.164
	V863.666z"/>
</svg>
