<?xml version="1.0" encoding="utf-8"?>
<!-- Generator: Adobe Illustrator 16.0.0, SVG Export Plug-In . SVG Version: 6.00 Build 0)  -->
<!DOCTYPE svg PUBLIC "-//W3C//DTD SVG 1.1//EN" "http://www.w3.org/Graphics/SVG/1.1/DTD/svg11.dtd">
<svg version="1.1" id="图形" xmlns="http://www.w3.org/2000/svg" xmlns:xlink="http://www.w3.org/1999/xlink" x="0px" y="0px"
	 width="1024px" height="1024px" viewBox="0 0 1024 1024" enable-background="new 0 0 1024 1024" xml:space="preserve">
<path fill-rule="evenodd" clip-rule="evenodd" d="M512,977.66C254.818,977.66,46.34,769.158,46.34,512
	c0-257.182,208.479-465.66,465.66-465.66c257.159,0,465.66,208.479,465.66,465.66C977.66,769.158,769.159,977.66,512,977.66z
	 M512,92.906C280.534,92.906,92.906,280.534,92.906,512c0,231.444,187.628,419.094,419.094,419.094S931.095,743.443,931.095,512
	C931.095,280.534,743.466,92.906,512,92.906z M742.92,697.332l-106.229-106.32l12.46-12.574c16.234-16.256,44.61-16.256,60.845,0
	l45.521,45.521c8.095,8.162,12.597,18.984,12.597,30.467s-4.502,22.307-12.665,30.492L742.92,697.332z M703.994,736.371
	c-7.458,7.459-35.743,31.719-87.652,31.719c-46.361,0-122.1-20.439-219.461-117.848c-194.29-194.517-90.608-302.906-85.97-307.521
	l10.141-10.164l106.365,106.456l-18.645,18.645c-2.706,2.729-4.184,6.321-4.184,10.164c0,3.842,1.501,7.435,4.184,10.163
	l160.253,160.367c5.434,5.412,14.87,5.434,20.281,0l18.645-18.668l106.229,106.525L703.994,736.371z M456.157,410.319
	L349.701,303.794l12.551-12.46c16.234-16.257,44.61-16.257,60.845,0l45.521,45.542c8.14,8.14,12.597,18.963,12.597,30.445
	c0,11.505-4.457,22.305-12.552,30.445L456.157,410.319z"/>
</svg>
