<?xml version="1.0" encoding="utf-8"?>
<!-- Generator: Adobe Illustrator 16.0.0, SVG Export Plug-In . SVG Version: 6.00 Build 0)  -->
<!DOCTYPE svg PUBLIC "-//W3C//DTD SVG 1.1//EN" "http://www.w3.org/Graphics/SVG/1.1/DTD/svg11.dtd">
<svg version="1.1" id="图形" xmlns="http://www.w3.org/2000/svg" xmlns:xlink="http://www.w3.org/1999/xlink" x="0px" y="0px"
	 width="1024px" height="1024px" viewBox="0 0 1024 1024" enable-background="new 0 0 1024 1024" xml:space="preserve">
<path fill-rule="evenodd" clip-rule="evenodd" d="M512,952.625C268.651,952.625,71.375,755.348,71.375,512
	S268.651,71.375,512,71.375c243.348,0,440.625,197.278,440.625,440.625S755.348,952.625,512,952.625z M747,629.5H512V335.75h29.375
	v29.375h29.375V394.5h29.375v29.375H629.5V394.5h-29.375v-29.375H570.75V335.75h-29.375v-29.375H512V277h-29.375v29.375H453.25
	v29.375h-29.375v29.375H394.5V394.5h-29.375v29.375H394.5V394.5h29.375v-29.375h29.375V335.75h29.375V629.5v29.375H747V629.5z"/>
</svg>
